<svg width="1338" height="249" viewBox="0 0 1338 249" fill="none" xmlns="http://www.w3.org/2000/svg">
<path d="M247.642 0.5V247.642H124.071V185.856H62.2855V247.642H0.5V0.5H62.2855V124.071H124.071V0.5H247.642Z" fill="#0087F2" stroke="#0087F2" stroke-miterlimit="10"/>
<path d="M361.86 243.5V19.5H396.42V212.14H504.26V243.5H361.86Z" fill="white"/>
<path d="M553.843 247.98C542.536 247.98 532.403 246.06 523.443 242.22C514.696 238.38 507.656 232.727 502.323 225.26C497.203 217.793 494.643 208.727 494.643 198.06C494.643 187.18 497.203 178.22 502.323 171.18C507.656 163.927 514.803 158.487 523.763 154.86C532.936 151.233 543.283 149.42 554.803 149.42H602.803V139.18C602.803 130.007 600.029 122.647 594.483 117.1C588.936 111.553 580.403 108.78 568.883 108.78C557.576 108.78 548.936 111.447 542.963 116.78C536.989 122.113 533.043 129.047 531.123 137.58L500.403 127.66C502.963 119.127 507.016 111.447 512.563 104.62C518.323 97.58 525.896 91.9267 535.283 87.66C544.669 83.3933 555.976 81.26 569.203 81.26C589.683 81.26 605.789 86.4867 617.523 96.94C629.256 107.393 635.123 122.22 635.123 141.42V206.38C635.123 212.78 638.109 215.98 644.083 215.98H657.523V243.5H632.883C625.416 243.5 619.336 241.58 614.643 237.74C609.949 233.9 607.603 228.673 607.603 222.06V221.1H602.803C601.096 224.3 598.536 228.033 595.123 232.3C591.709 236.567 586.696 240.3 580.083 243.5C573.469 246.487 564.723 247.98 553.843 247.98ZM558.643 220.78C571.869 220.78 582.536 217.047 590.643 209.58C598.749 201.9 602.803 191.447 602.803 178.22V175.02H556.723C547.976 175.02 540.936 176.94 535.603 180.78C530.269 184.407 527.603 189.847 527.603 197.1C527.603 204.353 530.376 210.113 535.923 214.38C541.469 218.647 549.043 220.78 558.643 220.78Z" fill="white"/>
<path d="M748.77 247.98C733.41 247.98 721.57 245.207 713.25 239.66C705.143 234.113 699.063 227.927 695.01 221.1H689.89V243.5H657.57V19.5H690.53V107.18H695.65C698.21 102.913 701.623 98.86 705.89 95.02C710.157 90.9667 715.81 87.66 722.85 85.1C729.89 82.54 738.53 81.26 748.77 81.26C761.997 81.26 774.157 84.46 785.25 90.86C796.343 97.26 805.197 106.54 811.81 118.7C818.423 130.86 821.73 145.367 821.73 162.22V167.02C821.73 184.087 818.317 198.7 811.49 210.86C804.877 222.807 796.023 231.98 784.93 238.38C774.05 244.78 761.997 247.98 748.77 247.98ZM739.17 219.18C753.463 219.18 765.197 214.593 774.37 205.42C783.757 196.247 788.45 183.127 788.45 166.06V163.18C788.45 146.327 783.863 133.313 774.69 124.14C765.517 114.967 753.677 110.38 739.17 110.38C725.09 110.38 713.357 114.967 703.97 124.14C694.797 133.313 690.21 146.327 690.21 163.18V166.06C690.21 183.127 694.797 196.247 703.97 205.42C713.357 214.593 725.09 219.18 739.17 219.18Z" fill="white"/>
<path d="M829.61 243.5V19.5H864.17V115.5H958.25V19.5H992.81V243.5H958.25V146.86H864.17V243.5H829.61Z" fill="white"/>
<path d="M1069.05 246.38C1057.1 246.38 1046.44 243.713 1037.05 238.38C1027.66 233.047 1020.3 225.473 1014.97 215.66C1009.64 205.847 1006.97 194.113 1006.97 180.46V85.74H1039.93V178.22C1039.93 191.873 1043.34 202.007 1050.17 208.62C1057 215.02 1066.49 218.22 1078.65 218.22C1092.09 218.22 1102.86 213.74 1110.97 204.78C1119.29 195.607 1123.45 182.487 1123.45 165.42V85.74H1156.41V243.5H1124.09V219.82H1118.97C1115.98 226.22 1110.65 232.3 1102.97 238.06C1095.29 243.607 1083.98 246.38 1069.05 246.38Z" fill="white"/>
<path d="M1264.33 247.98C1248.97 247.98 1237.13 245.207 1228.81 239.66C1220.71 234.113 1214.63 227.927 1210.57 221.1H1205.45V243.5H1173.13V19.5H1206.09V107.18H1211.21C1213.77 102.913 1217.19 98.86 1221.45 95.02C1225.72 90.9667 1231.37 87.66 1238.41 85.1C1245.45 82.54 1254.09 81.26 1264.33 81.26C1277.56 81.26 1289.72 84.46 1300.81 90.86C1311.91 97.26 1320.76 106.54 1327.37 118.7C1333.99 130.86 1337.29 145.367 1337.29 162.22V167.02C1337.29 184.087 1333.88 198.7 1327.05 210.86C1320.44 222.807 1311.59 231.98 1300.49 238.38C1289.61 244.78 1277.56 247.98 1264.33 247.98ZM1254.73 219.18C1269.03 219.18 1280.76 214.593 1289.93 205.42C1299.32 196.247 1304.01 183.127 1304.01 166.06V163.18C1304.01 146.327 1299.43 133.313 1290.25 124.14C1281.08 114.967 1269.24 110.38 1254.73 110.38C1240.65 110.38 1228.92 114.967 1219.53 124.14C1210.36 133.313 1205.77 146.327 1205.77 163.18V166.06C1205.77 183.127 1210.36 196.247 1219.53 205.42C1228.92 214.593 1240.65 219.18 1254.73 219.18Z" fill="white"/>
</svg>
